<?xml version="1.0" encoding="utf-8"?>
<!-- Generator: Adobe Illustrator 27.5.0, SVG Export Plug-In . SVG Version: 6.00 Build 0)  -->
<svg version="1.1" xmlns="http://www.w3.org/2000/svg" xmlns:xlink="http://www.w3.org/1999/xlink" x="0px" y="0px"
	 viewBox="0 0 500 500" style="enable-background:new 0 0 500 500;" xml:space="preserve">
<g id="BACKGROUND">
	<rect style="fill:#FFFFFF;" width="500" height="500"/>
</g>
<g id="OBJECTS">
	<g>
		<path style="fill:#E7EFFF;" d="M345.259,205.221c0,0,40.513-4.341,57.417,45.221c16.904,49.561-4.761,66.574,23.965,84.685
			c28.726,18.111,12.337,66.641-14.688,73.735s-322.161-1.264-322.161-1.264s-24.286-2.795-31.284-54.117
			s38.886-48.442,42.595-76.325c3.709-27.883,20.92-56.612,87.537-62.65C255.256,208.467,345.259,205.221,345.259,205.221z"/>
		<g>
			<g>
				<g>
					<g>
						<path style="fill:#FF981A;" d="M70.701,376.406c-4.317,2.644-9.521,2.007-11.622-1.424c-2.101-3.431-0.305-8.356,4.013-11
							c4.317-2.645,9.521-2.007,11.622,1.424C76.815,368.837,75.018,373.762,70.701,376.406z"/>
					</g>
					<g>
						<path style="fill:#FF981A;" d="M69.76,374.87c-3.25,1.991-7.166,1.511-8.748-1.072c-1.582-2.582-0.229-6.289,3.02-8.28
							c3.25-1.99,7.166-1.511,8.748,1.072C74.362,369.172,73.009,372.879,69.76,374.87z"/>
					</g>
					<g>
						<path style="fill:#FF981A;" d="M75.486,369.79l-16.164-1.98c-0.601,1.055-0.966,2.172-1.077,3.276l15.939,1.952
							C74.852,372.003,75.299,370.896,75.486,369.79z"/>
					</g>
					<g>
						<path style="fill:#FF981A;" d="M69.76,374.87c-3.25,1.991-7.166,1.511-8.748-1.072c-1.582-2.582-0.229-6.289,3.02-8.28
							c3.25-1.99,7.166-1.511,8.748,1.072C74.362,369.172,73.009,372.879,69.76,374.87z"/>
					</g>
				</g>
				<g>
					<g>
						<path style="fill:#FFC21A;" d="M68.687,373.119c-3.25,1.991-7.166,1.511-8.748-1.072c-1.582-2.582-0.23-6.289,3.02-8.28
							c3.25-1.99,7.166-1.511,8.748,1.072C73.289,367.421,71.937,371.128,68.687,373.119z"/>
						<path style="fill:#FF981A;" d="M59.355,372.404c-1.776-2.9-0.32-7.036,3.247-9.221c3.567-2.185,7.913-1.603,9.689,1.297
							c1.777,2.901,0.32,7.037-3.246,9.222C65.478,375.887,61.132,375.305,59.355,372.404z M71.517,364.955
							c-1.484-2.423-5.247-2.831-8.387-0.908c-3.14,1.923-4.486,5.46-3.002,7.883c1.485,2.424,5.248,2.832,8.388,0.909
							C71.656,370.916,73.002,367.379,71.517,364.955z"/>
					</g>
				</g>
			</g>
			<path style="fill:#FFEC41;" d="M62.692,370.401l1.607,7.59c1.172,0.111,2.42-0.011,3.666-0.375l-1.688-7.974L62.692,370.401z"/>
			<path style="fill:#FFC21A;" d="M69.351,377.106c0.456-0.202,0.908-0.43,1.349-0.7c0.202-0.124,0.393-0.257,0.584-0.391
				l-1.6-3.722l-1.805,0.641L69.351,377.106z"/>
			<g>
				<path style="fill:#FFC21A;" d="M69.628,374.655c-4.318,2.645-9.521,2.007-11.622-1.424c-2.101-3.431-0.305-8.356,4.013-11
					c4.317-2.645,9.521-2.007,11.622,1.424C75.742,367.085,73.945,372.01,69.628,374.655z"/>
			</g>
			<g>
				<path style="fill:#FFEC41;" d="M74.413,368.039l-16.163-1.98c-0.601,1.055-0.966,2.172-1.077,3.276l15.939,1.952
					C73.78,370.252,74.226,369.145,74.413,368.039z"/>
			</g>
			<path style="fill:#FFEC41;" d="M59.199,364.681l15.311,2.287c0.007-0.404-0.016-0.804-0.083-1.196l-14.028-2.337
				C59.957,363.827,59.556,364.243,59.199,364.681z"/>
		</g>
		<g>
			<rect x="173.71" y="138.813" style="fill:#E7EFFF;" width="6.263" height="20.876"/>
			<rect x="298.966" y="138.813" style="fill:#E7EFFF;" width="6.263" height="20.876"/>
			<g>
				<g>
					
						<text transform="matrix(1 0 0 1 109.0018 184.7434)" style="fill:#EA7259; font-family:'Bungee-Regular'; font-size:42.5266px;">WE’RE  OPEN</text>
				</g>
				<g>
					<rect x="96.052" y="183.097" style="fill:#FECB5B;" width="296.504" height="227.222"/>
					<rect x="96.052" y="196.627" style="opacity:0.28;fill:#6F5E3D;" width="296.504" height="10.744"/>
					<rect x="137.301" y="266.44" style="opacity:0.28;fill:#6F5E3D;" width="73.22" height="143.879"/>
					<rect x="226.439" y="291.51" style="fill:#EEF2FA;" width="144.849" height="84.188"/>
					<rect x="226.439" y="372.117" style="fill:#D1E1F0;" width="144.849" height="3.581"/>
					<path style="fill:#3B7BD9;" d="M362.334,370.127H235.392c-1.868,0-3.382-1.514-3.382-3.382v-66.281
						c0-1.868,1.514-3.382,3.382-3.382h126.942c1.868,0,3.383,1.514,3.383,3.382v66.281
						C365.717,368.613,364.202,370.127,362.334,370.127z"/>
					<path style="fill:#3B9BF4;" d="M358.534,370.127H239.192c-1.769,0-3.203-1.434-3.203-3.203v-63.233
						c0-1.769,1.434-3.203,3.203-3.203h119.342c1.769,0,3.203,1.434,3.203,3.203v63.233
						C361.737,368.693,360.303,370.127,358.534,370.127z"/>
					<g>
						<path style="fill:#EEF2FA;" d="M208.134,410.319h-68.047V295.713c0-3.297,2.672-5.969,5.969-5.969h56.109
							c3.297,0,5.969,2.673,5.969,5.969V410.319z"/>
						<path style="fill:#3B7BD9;" d="M194.405,393.904h-40.589c-2.143,0-3.88-1.737-3.88-3.88v-89.536c0-2.143,1.737-3.88,3.88-3.88
							h40.589c2.143,0,3.88,1.737,3.88,3.88v89.536C198.285,392.167,196.548,393.904,194.405,393.904z"/>
						<path style="fill:#3B9BF4;" d="M190.391,393.904h-32.562c-1.887,0-3.417-1.53-3.417-3.417v-85.786
							c0-1.887,1.53-3.417,3.417-3.417h32.562c1.887,0,3.417,1.53,3.417,3.417v85.786
							C193.808,392.374,192.278,393.904,190.391,393.904z"/>
						<rect x="151.726" y="337.695" style="fill:#3B7BD9;" width="45.365" height="6.566"/>
						<rect x="146.055" y="333.318" style="fill:#EEF2FA;" width="56.706" height="6.566"/>
						<path style="fill:#EEF2FA;" d="M189.928,363.163L189.928,363.163c-1.044,0-1.89-0.846-1.89-1.89V350.33
							c0-1.044,0.846-1.89,1.89-1.89h0c1.044,0,1.89,0.846,1.89,1.89v10.943C191.818,362.317,190.972,363.163,189.928,363.163z"/>
					</g>
					<path style="opacity:0.28;fill:#6F5E3D;" d="M96.052,298.505L96.052,298.505c6.966,0,13.394-2.35,18.532-6.298
						c5.138,3.948,11.566,6.298,18.532,6.298c6.966,0,13.394-2.35,18.531-6.298c5.138,3.948,11.566,6.298,18.531,6.298
						s13.394-2.35,18.532-6.298c5.138,3.948,11.566,6.298,18.531,6.298c6.966,0,13.394-2.35,18.532-6.298
						c5.138,3.948,11.566,6.298,18.531,6.298c6.966,0,13.394-2.35,18.531-6.298c5.138,3.948,11.566,6.298,18.532,6.298
						c6.966,0,13.393-2.35,18.531-6.298c5.138,3.948,11.566,6.298,18.532,6.298c6.966,0,13.393-2.35,18.531-6.298
						c5.138,3.948,11.566,6.298,18.532,6.298c6.966,0,13.393-2.35,18.531-6.298c5.138,3.948,11.566,6.298,18.532,6.298v-44.003
						H96.052V298.505z"/>
					<g>
						<g>
							<g>
								<path style="fill:#F25E5F;" d="M114.584,266.44l-36.973-2.015l10.585-51.085c0-7.365,5.971-13.336,13.336-13.336h13.053
									V266.44z"/>
								<path style="fill:#F25E5F;" d="M411.087,266.44h-37.063v-66.436h13.053c7.365,0,13.336,5.971,13.336,13.336L411.087,266.44z
									"/>
								<rect x="114.584" y="200.004" style="fill:#E7EFFF;" width="37.063" height="66.436"/>
							</g>
							<g>
								<rect x="151.647" y="200.004" style="fill:#F25E5F;" width="37.063" height="66.436"/>
								<rect x="188.71" y="200.004" style="fill:#E7EFFF;" width="37.063" height="66.436"/>
							</g>
							<g>
								<rect x="225.772" y="200.004" style="fill:#F25E5F;" width="37.063" height="66.436"/>
								<rect x="262.835" y="200.004" style="fill:#E7EFFF;" width="37.063" height="66.436"/>
							</g>
							<g>
								<rect x="299.898" y="200.004" style="fill:#F25E5F;" width="37.063" height="66.436"/>
								<rect x="336.961" y="200.004" style="fill:#E7EFFF;" width="37.063" height="66.436"/>
							</g>
						</g>
						<g>
							<g>
								<path style="fill:#E1484E;" d="M96.052,288.955L96.052,288.955c-10.235,0-18.531-8.297-18.531-18.531v-6.062h37.063v6.062
									C114.584,280.658,106.287,288.955,96.052,288.955z"/>
								<path style="fill:#E1484E;" d="M392.556,288.955L392.556,288.955c-10.235,0-18.532-8.297-18.532-18.531v-6.062h37.063v6.062
									C411.087,280.658,402.791,288.955,392.556,288.955z"/>
								<path style="fill:#B0C4DA;" d="M133.115,288.955L133.115,288.955c-10.235,0-18.532-8.297-18.532-18.531v-6.062h37.063v6.062
									C151.647,280.658,143.35,288.955,133.115,288.955z"/>
							</g>
							<g>
								<path style="fill:#E1484E;" d="M170.178,288.955L170.178,288.955c-10.235,0-18.532-8.297-18.532-18.531v-6.062h37.063v6.062
									C188.71,280.658,180.413,288.955,170.178,288.955z"/>
								<path style="fill:#AAC6E9;" d="M207.241,288.955L207.241,288.955c-10.235,0-18.531-8.297-18.531-18.531v-6.062h37.063v6.062
									C225.772,280.658,217.476,288.955,207.241,288.955z"/>
							</g>
							<g>
								<path style="fill:#E1484E;" d="M244.304,288.955L244.304,288.955c-10.235,0-18.532-8.297-18.532-18.531v-6.062h37.063v6.062
									C262.835,280.658,254.539,288.955,244.304,288.955z"/>
								<path style="fill:#AAC6E9;" d="M281.367,288.955L281.367,288.955c-10.235,0-18.532-8.297-18.532-18.531v-6.062h37.063v6.062
									C299.898,280.658,291.602,288.955,281.367,288.955z"/>
							</g>
							<g>
								<path style="fill:#E1484E;" d="M318.43,288.955L318.43,288.955c-10.235,0-18.531-8.297-18.531-18.531v-6.062h37.063v6.062
									C336.961,280.658,328.665,288.955,318.43,288.955z"/>
								<path style="fill:#AAC6E9;" d="M355.493,288.955L355.493,288.955c-10.235,0-18.532-8.297-18.532-18.531v-6.062h37.063v6.062
									C374.024,280.658,365.728,288.955,355.493,288.955z"/>
							</g>
						</g>
					</g>
					<rect x="226.538" y="380.872" style="opacity:0.28;fill:#235E3D;" width="144.252" height="4.079"/>
					<rect x="222.459" y="374.902" style="fill:#EEF2FA;" width="152.41" height="5.969"/>
					<rect x="208.134" y="393.606" style="fill:#A1A9C0;" width="190.711" height="16.713"/>
					<rect x="208.134" y="393.606" style="fill:#838DAE;" width="5.074" height="16.713"/>
					<g>
						<rect x="88.752" y="393.606" style="fill:#A1A9C0;" width="51.334" height="16.713"/>
						<rect x="134.714" y="393.606" style="fill:#838DAE;" width="5.372" height="16.713"/>
					</g>
					<g>
						<path style="fill:#75BE43;" d="M116.842,368.419c-0.897,0-1.684,0.464-2.14,1.164c-0.56-1.465-1.974-2.507-3.636-2.507
							c-0.575,0-1.119,0.128-1.61,0.351c-0.511-2.201-2.48-3.843-4.836-3.843c-2.249,0-4.147,1.495-4.759,3.545
							c-0.2-0.032-0.404-0.053-0.613-0.053c-2.151,0-3.895,1.744-3.895,3.895c0,0.076,0.007,0.149,0.011,0.224h5.052h2.715h4.052
							h1.641h5.489h0.638h4.421c0.007-0.075,0.022-0.147,0.022-0.224C119.394,369.561,118.251,368.419,116.842,368.419z"/>
						<g>
							<rect x="93.826" y="370.724" style="fill:#F25E5F;" width="27.756" height="22.881"/>
							<rect x="114.22" y="370.724" style="fill:#E1484E;" width="7.362" height="22.881"/>
							<rect x="95.716" y="376.295" style="fill:#E1484E;" width="7.66" height="2.984"/>
							<rect x="103.576" y="379.678" style="fill:#F27571;" width="7.66" height="2.984"/>
						</g>
					</g>
					<rect x="114.419" y="315.411" style="fill:#FEB35B;" width="19.996" height="27.458"/>
					<g style="opacity:0.53;">
						<polygon style="fill:#3BBBF4;" points="349.631,297.081 343.065,297.081 305.268,370.127 311.834,370.127 						"/>
						<polygon style="fill:#3BBBF4;" points="289.152,370.127 301.687,370.127 339.484,297.081 326.949,297.081 						"/>
					</g>
					
						<rect x="296.824" y="269.598" transform="matrix(6.123234e-17 -1 1 6.123234e-17 -37.2903 634.5192)" style="fill:#3B7BD9;" width="3.581" height="132.613"/>
					
						<rect x="296.824" y="263.53" transform="matrix(6.123234e-17 -1 1 6.123234e-17 -34.7037 631.9326)" style="fill:#EEF2FA;" width="3.581" height="139.576"/>
				</g>
				<g>
					
						<text transform="matrix(1 0 0 1 105.0223 184.7434)" style="fill:#FECB5B; font-family:'Bungee-Regular'; font-size:42.5266px;">WE’RE  OPEN</text>
				</g>
			</g>
			<g>
				<path style="opacity:0.28;fill:#6F5E3D;" d="M392.556,330.481h-7.998v-4.262h-7.655v4.262H361.16
					c-3.891,0-7.046,3.154-7.046,7.046v15.657c0,3.891,3.154,7.046,7.046,7.046h15.744v3.566v46.523h7.655v-46.523v-3.566h7.998
					V330.481z"/>
				<g>
					<g>
						<rect x="376.904" y="323.218" style="fill:#EEF2FA;" width="7.655" height="87.071"/>
						<rect x="376.904" y="350.444" style="fill:#ACC9F0;" width="7.655" height="10.351"/>
						<path style="fill:#75BE43;" d="M401.868,357.229H361.16c-3.891,0-7.046-3.154-7.046-7.046v-15.657
							c0-3.891,3.154-7.046,7.046-7.046h40.708c3.891,0,7.046,3.154,7.046,7.046v15.657
							C408.914,354.074,405.759,357.229,401.868,357.229z"/>
					</g>
					<text transform="matrix(1 0 0 1 364.0262 342.2527)"><tspan x="0" y="0" style="fill:#FFFFFF; font-family:'Aileron-Black'; font-size:11.6439px;">SHOP</tspan><tspan x="1.572" y="10.204" style="fill:#FFFFFF; font-family:'Aileron-Black'; font-size:11.6439px;">NOW</tspan></text>
				</g>
			</g>
			<g>
				<g>
					<g>
						<g>
							<path style="fill:#FF981A;" d="M431.46,372.706c7.15,4.38,15.768,3.324,19.248-2.358c3.48-5.682,0.505-13.838-6.645-18.218
								c-7.15-4.38-15.768-3.324-19.248,2.358C421.335,360.17,424.31,368.327,431.46,372.706z"/>
						</g>
						<g>
							<path style="fill:#FF981A;" d="M433.019,370.162c5.382,3.297,11.868,2.502,14.488-1.775
								c2.619-4.277,0.38-10.416-5.002-13.712c-5.382-3.297-11.868-2.502-14.488,1.775
								C425.397,360.726,427.637,366.866,433.019,370.162z"/>
						</g>
						<g>
							<path style="fill:#FF981A;" d="M423.535,361.749l26.769-3.279c0.996,1.748,1.599,3.598,1.784,5.425l-26.397,3.233
								C424.584,365.414,423.845,363.58,423.535,361.749z"/>
						</g>
						<g>
							<path style="fill:#FF981A;" d="M433.019,370.162c5.382,3.297,11.868,2.502,14.488-1.775
								c2.619-4.277,0.38-10.416-5.002-13.712c-5.382-3.297-11.868-2.502-14.488,1.775
								C425.397,360.726,427.637,366.866,433.019,370.162z"/>
						</g>
					</g>
					<g>
						<g>
							<path style="fill:#FFC21A;" d="M434.795,367.261c5.382,3.296,11.868,2.502,14.488-1.775c2.62-4.277,0.38-10.416-5.002-13.712
								c-5.382-3.296-11.868-2.502-14.488,1.775C427.174,357.826,429.413,363.965,434.795,367.261z"/>
							<path style="fill:#FF981A;" d="M434.203,368.229c-5.907-3.618-8.319-10.468-5.376-15.272
								c2.941-4.802,10.14-5.766,16.047-2.148c5.907,3.618,8.319,10.468,5.377,15.271
								C447.308,370.883,440.109,371.847,434.203,368.229z M435.078,366.799c5.2,3.185,11.432,2.51,13.891-1.505
								c2.458-4.013,0.228-9.871-4.972-13.056c-5.2-3.185-11.432-2.51-13.889,1.503
								C427.648,357.756,429.879,363.614,435.078,366.799z"/>
						</g>
					</g>
				</g>
				<path style="fill:#FFEC41;" d="M444.723,362.761l-2.661,12.569c-1.941,0.183-4.008-0.018-6.072-0.62l2.796-13.206
					L444.723,362.761z"/>
				<path style="fill:#FFC21A;" d="M433.695,373.866c-0.755-0.335-1.504-0.712-2.235-1.159c-0.335-0.205-0.651-0.426-0.967-0.647
					l2.649-6.163l2.989,1.061L433.695,373.866z"/>
				<g>
					<path style="fill:#FFC21A;" d="M433.237,369.806c7.15,4.38,15.768,3.324,19.248-2.358c3.48-5.682,0.505-13.838-6.645-18.218
						c-7.15-4.379-15.768-3.324-19.248,2.358C423.111,357.27,426.086,365.426,433.237,369.806z"/>
				</g>
				<g>
					<path style="fill:#FFEC41;" d="M425.311,358.848l26.769-3.279c0.996,1.748,1.6,3.598,1.784,5.425l-26.396,3.234
						C426.361,362.513,425.621,360.68,425.311,358.848z"/>
				</g>
				<path style="fill:#FFEC41;" d="M450.508,353.287l-25.356,3.788c-0.012-0.669,0.027-1.332,0.137-1.981l23.233-3.87
					C449.252,351.873,449.917,352.563,450.508,353.287z"/>
			</g>
			<g>
				<g>
					<g>
						<g>
							<path style="fill:#FF981A;" d="M60.875,332.714c8.222,5.036,18.132,3.822,22.134-2.711
								c4.002-6.534,0.581-15.913-7.642-20.949c-8.223-5.036-18.132-3.822-22.134,2.711
								C49.231,318.298,52.653,327.678,60.875,332.714z"/>
						</g>
						<g>
							<path style="fill:#FF981A;" d="M62.667,329.788c6.189,3.791,13.648,2.877,16.66-2.041c3.012-4.918,0.437-11.978-5.752-15.768
								c-6.189-3.791-13.648-2.877-16.66,2.041C53.903,318.938,56.478,325.998,62.667,329.788z"/>
						</g>
						<g>
							<path style="fill:#FF981A;" d="M51.762,320.113l30.782-3.771c1.145,2.01,1.839,4.137,2.052,6.239l-30.355,3.718
								C52.969,324.328,52.118,322.22,51.762,320.113z"/>
						</g>
						<g>
							<path style="fill:#FF981A;" d="M62.667,329.788c6.189,3.791,13.648,2.877,16.66-2.041c3.012-4.918,0.437-11.978-5.752-15.768
								c-6.189-3.791-13.648-2.877-16.66,2.041C53.903,318.938,56.478,325.998,62.667,329.788z"/>
						</g>
					</g>
					<g>
						<g>
							<path style="fill:#FFC21A;" d="M64.71,326.453c6.189,3.791,13.648,2.877,16.66-2.041c3.012-4.918,0.437-11.978-5.752-15.768
								c-6.189-3.791-13.648-2.877-16.66,2.041C55.946,315.602,58.522,322.662,64.71,326.453z"/>
							<path style="fill:#FF981A;" d="M64.029,327.565c-6.793-4.16-9.566-12.038-6.183-17.562c3.383-5.522,11.66-6.631,18.453-2.47
								c6.793,4.161,9.566,12.038,6.184,17.56C79.099,330.617,70.822,331.726,64.029,327.565z M65.036,325.921
								c5.979,3.663,13.146,2.887,15.974-1.73c2.826-4.615,0.262-11.351-5.718-15.013c-5.979-3.663-13.146-2.886-15.972,1.728
								C56.492,315.522,59.057,322.258,65.036,325.921z"/>
						</g>
					</g>
				</g>
				<path style="fill:#FFEC41;" d="M76.127,321.278l-3.06,14.454c-2.232,0.211-4.61-0.02-6.982-0.713l3.215-15.186L76.127,321.278z"
					/>
				<path style="fill:#FFC21A;" d="M63.445,334.047c-0.868-0.385-1.729-0.818-2.57-1.333c-0.385-0.236-0.749-0.49-1.112-0.744
					l3.047-7.087l3.438,1.221L63.445,334.047z"/>
				<g>
					<path style="fill:#FFC21A;" d="M62.918,329.379c8.222,5.036,18.132,3.822,22.134-2.711c4.002-6.534,0.581-15.913-7.642-20.95
						c-8.223-5.036-18.132-3.822-22.134,2.712C51.275,314.963,54.696,324.342,62.918,329.379z"/>
				</g>
				<g>
					<path style="fill:#FFEC41;" d="M53.805,316.778l30.783-3.771c1.145,2.01,1.839,4.137,2.052,6.238l-30.354,3.718
						C55.012,320.993,54.161,318.884,53.805,316.778z"/>
				</g>
				<path style="fill:#FFEC41;" d="M82.78,310.383l-29.158,4.356c-0.013-0.769,0.031-1.531,0.157-2.278l26.717-4.45
					C81.335,308.757,82.099,309.55,82.78,310.383z"/>
			</g>
			<g>
				<g>
					<g>
						<g>
							<path style="fill:#FF981A;" d="M415.852,393.107c-4.318,2.644-9.521,2.007-11.622-1.424c-2.101-3.431-0.305-8.356,4.012-11
								c4.317-2.645,9.521-2.007,11.622,1.424C421.966,385.538,420.17,390.463,415.852,393.107z"/>
						</g>
						<g>
							<path style="fill:#FF981A;" d="M414.911,391.571c-3.25,1.991-7.166,1.511-8.748-1.072c-1.582-2.582-0.229-6.289,3.02-8.28
								c3.25-1.991,7.166-1.511,8.748,1.072S418.161,389.58,414.911,391.571z"/>
						</g>
						<g>
							<path style="fill:#FF981A;" d="M420.638,386.491l-16.164-1.98c-0.601,1.055-0.966,2.172-1.077,3.276l15.939,1.952
								C420.004,388.704,420.451,387.597,420.638,386.491z"/>
						</g>
						<g>
							<path style="fill:#FF981A;" d="M414.911,391.571c-3.25,1.991-7.166,1.511-8.748-1.072c-1.582-2.582-0.229-6.289,3.02-8.28
								c3.25-1.991,7.166-1.511,8.748,1.072S418.161,389.58,414.911,391.571z"/>
						</g>
					</g>
					<g>
						<g>
							<path style="fill:#FFC21A;" d="M413.838,389.819c-3.25,1.991-7.166,1.511-8.748-1.072c-1.582-2.582-0.229-6.289,3.02-8.28
								c3.25-1.99,7.166-1.511,8.748,1.072C418.44,384.122,417.088,387.829,413.838,389.819z"/>
							<path style="fill:#FF981A;" d="M404.506,389.105c-1.776-2.9-0.32-7.036,3.247-9.221c3.567-2.185,7.913-1.603,9.689,1.297
								c1.777,2.901,0.32,7.037-3.247,9.222C410.629,392.588,406.283,392.006,404.506,389.105z M416.669,381.655
								c-1.484-2.423-5.247-2.831-8.387-0.907c-3.14,1.923-4.486,5.46-3.002,7.883c1.485,2.424,5.248,2.832,8.388,0.909
								C416.807,387.617,418.154,384.08,416.669,381.655z"/>
						</g>
					</g>
				</g>
				<path style="fill:#FFEC41;" d="M407.844,387.102l1.607,7.59c1.172,0.111,2.42-0.011,3.666-0.375l-1.688-7.974L407.844,387.102z"
					/>
				<path style="fill:#FFC21A;" d="M414.503,393.807c0.456-0.202,0.908-0.43,1.349-0.7c0.202-0.124,0.393-0.257,0.584-0.391
					l-1.6-3.721l-1.805,0.641L414.503,393.807z"/>
				<g>
					<path style="fill:#FFC21A;" d="M414.779,391.356c-4.318,2.645-9.521,2.007-11.622-1.424c-2.101-3.431-0.305-8.356,4.013-11
						c4.317-2.644,9.521-2.007,11.622,1.424C420.893,383.786,419.097,388.711,414.779,391.356z"/>
				</g>
				<g>
					<path style="fill:#FFEC41;" d="M419.565,384.739l-16.164-1.98c-0.601,1.055-0.966,2.172-1.077,3.276l15.939,1.952
						C418.931,386.952,419.378,385.845,419.565,384.739z"/>
				</g>
				<path style="fill:#FFEC41;" d="M404.35,381.382l15.311,2.287c0.007-0.404-0.016-0.804-0.083-1.196l-14.029-2.336
					C405.109,380.528,404.708,380.944,404.35,381.382z"/>
			</g>
			<polygon style="fill:#FFC21A;" points="346.467,119.875 344.992,116.747 343.154,119.676 340.026,121.152 342.956,122.989 
				344.431,126.117 346.268,123.187 349.396,121.712 			"/>
			<polygon style="fill:#FFC21A;" points="98.176,164.751 95.877,159.876 93.013,164.442 88.138,166.741 92.704,169.605 
				95.003,174.48 97.867,169.914 102.742,167.615 			"/>
			<polygon style="fill:#FFC21A;" points="403.938,177.082 402.571,174.183 400.868,176.898 397.97,178.265 400.685,179.968 
				402.052,182.867 403.755,180.152 406.653,178.785 			"/>
			<path style="fill:#FF3BAA;" d="M322.278,145.424H162.576c-6.341,0-11.482-5.141-11.482-11.482v-8.35
				c0-6.341,5.141-11.482,11.482-11.482h159.702c6.341,0,11.482,5.141,11.482,11.482v8.35
				C333.76,140.283,328.619,145.424,322.278,145.424z"/>
			<g>
				<g>
					<g>
						<path style="fill:#D13B81;" d="M320.969,138.673c7.414-3.531,11.149-11.168,8.344-17.059
							c-2.805-5.891-11.09-7.805-18.503-4.274c-7.414,3.53-11.149,11.168-8.344,17.059
							C305.271,140.29,313.555,142.204,320.969,138.673z"/>
					</g>
				</g>
				<g>
					<g>
						<g>
							<g>
								<path style="fill:#FF981A;" d="M317.704,134.896c7.414-3.531,11.149-11.168,8.344-17.059
									c-2.805-5.891-11.089-7.805-18.503-4.274c-7.414,3.53-11.149,11.168-8.344,17.059
									C302.006,136.513,310.29,138.426,317.704,134.896z"/>
							</g>
							<g>
								<path style="fill:#FF981A;" d="M316.448,132.258c5.58-2.657,8.392-8.406,6.28-12.84c-2.112-4.434-8.347-5.874-13.927-3.217
									c-5.58,2.657-8.392,8.406-6.28,12.84C304.632,133.475,310.868,134.915,316.448,132.258z"/>
							</g>
							<g>
								<path style="fill:#FF981A;" d="M304.477,135.55l11.604-23.725c1.966,0.116,3.807,0.608,5.406,1.432l-11.443,23.395
									C308.046,136.645,306.146,136.273,304.477,135.55z"/>
							</g>
							<g>
								<path style="fill:#FF981A;" d="M316.448,132.258c5.58-2.657,8.392-8.406,6.28-12.84c-2.112-4.434-8.347-5.874-13.927-3.217
									c-5.58,2.657-8.392,8.406-6.28,12.84C304.632,133.475,310.868,134.915,316.448,132.258z"/>
							</g>
						</g>
						<g>
							<g>
								<path style="fill:#FFC21A;" d="M315.016,129.25c5.58-2.657,8.392-8.406,6.28-12.84c-2.112-4.434-8.347-5.875-13.927-3.217
									c-5.58,2.657-8.392,8.406-6.28,12.84C303.2,130.467,309.436,131.908,315.016,129.25z"/>
								<path style="fill:#FF981A;" d="M315.493,130.253c-6.125,2.917-13.036,1.238-15.408-3.743
									c-2.371-4.979,0.682-11.403,6.806-14.319c6.124-2.917,13.036-1.238,15.407,3.741
									C324.671,120.913,321.618,127.337,315.493,130.253z M314.787,128.771c5.391-2.567,8.165-8.043,6.183-12.206
									c-1.981-4.161-7.981-5.458-13.372-2.891c-5.391,2.568-8.165,8.043-6.184,12.204
									C303.396,130.041,309.396,131.338,314.787,128.771z"/>
							</g>
						</g>
					</g>
					<path style="fill:#FFEC41;" d="M316.624,118.698l8.897,8.897c-0.886,1.691-2.155,3.281-3.752,4.653l-9.347-9.347
						L316.624,118.698z"/>
					<path style="fill:#FFC21A;" d="M319.849,133.681c-0.678,0.441-1.387,0.854-2.145,1.215c-0.347,0.165-0.697,0.307-1.048,0.448
						l-3.644-5.467l2.468-1.887L319.849,133.681z"/>
					<g>
						<path style="fill:#FFC21A;" d="M316.272,131.888c7.414-3.53,11.149-11.168,8.344-17.059
							c-2.805-5.891-11.09-7.805-18.503-4.274c-7.414,3.53-11.149,11.168-8.344,17.059
							C300.574,133.505,308.858,135.419,316.272,131.888z"/>
					</g>
					<g>
						<path style="fill:#FFEC41;" d="M303.045,132.542l11.604-23.725c1.966,0.116,3.807,0.608,5.406,1.433l-11.442,23.395
							C306.614,133.638,304.714,133.266,303.045,132.542z"/>
					</g>
					<path style="fill:#FFEC41;" d="M311.936,108.889l-10.432,22.837c-0.555-0.348-1.079-0.733-1.553-1.17l9.231-21.138
						C310.105,109.165,311.026,108.988,311.936,108.889z"/>
				</g>
			</g>
			<g>
				<g>
					<g>
						<g>
							<path style="fill:#FF981A;" d="M333.779,143.81c3.256,1.994,7.181,1.514,8.766-1.074s0.23-6.302-3.026-8.297
								c-3.256-1.995-7.181-1.514-8.766,1.074C329.167,138.1,330.522,141.815,333.779,143.81z"/>
						</g>
						<g>
							<path style="fill:#FF981A;" d="M334.488,142.651c2.451,1.501,5.405,1.139,6.598-0.808c1.193-1.948,0.173-4.744-2.278-6.245
								c-2.451-1.501-5.405-1.139-6.598,0.808C331.017,138.354,332.037,141.15,334.488,142.651z"/>
						</g>
						<g>
							<path style="fill:#FF981A;" d="M330.169,138.819l12.191-1.493c0.454,0.796,0.729,1.639,0.813,2.471l-12.021,1.473
								C330.647,140.488,330.31,139.654,330.169,138.819z"/>
						</g>
						<g>
							<path style="fill:#FF981A;" d="M334.488,142.651c2.451,1.501,5.405,1.139,6.598-0.808c1.193-1.948,0.173-4.744-2.278-6.245
								c-2.451-1.501-5.405-1.139-6.598,0.808C331.017,138.354,332.037,141.15,334.488,142.651z"/>
						</g>
					</g>
					<g>
						<g>
							<path style="fill:#FFC21A;" d="M335.297,141.33c2.451,1.501,5.405,1.139,6.598-0.808c1.193-1.948,0.173-4.743-2.278-6.245
								c-2.451-1.501-5.405-1.139-6.598,0.808C331.826,137.033,332.846,139.829,335.297,141.33z"/>
							<path style="fill:#FF981A;" d="M335.027,141.77c-2.69-1.648-3.789-4.767-2.448-6.955c1.34-2.187,4.618-2.626,7.308-0.978
								c2.69,1.648,3.788,4.767,2.449,6.954C340.996,142.979,337.718,143.418,335.027,141.77z M335.426,141.119
								c2.368,1.451,5.206,1.143,6.326-0.685c1.119-1.827,0.104-4.495-2.264-5.946c-2.368-1.45-5.206-1.143-6.326,0.684
								C332.042,137.001,333.058,139.669,335.426,141.119z"/>
						</g>
					</g>
				</g>
				<path style="fill:#FFEC41;" d="M339.819,139.281l-1.212,5.724c-0.884,0.083-1.826-0.008-2.765-0.283l1.273-6.014
					L339.819,139.281z"/>
				<path style="fill:#FFC21A;" d="M334.796,144.338c-0.344-0.153-0.685-0.324-1.018-0.528c-0.152-0.093-0.296-0.194-0.44-0.295
					l1.207-2.807l1.361,0.483L334.796,144.338z"/>
				<g>
					<path style="fill:#FFC21A;" d="M334.588,142.489c3.256,1.995,7.181,1.514,8.766-1.074c1.585-2.588,0.23-6.302-3.026-8.297
						c-3.256-1.994-7.181-1.514-8.766,1.074C329.976,136.779,331.331,140.494,334.588,142.489z"/>
				</g>
				<g>
					<path style="fill:#FFEC41;" d="M330.978,137.498l12.191-1.493c0.453,0.796,0.729,1.638,0.813,2.471l-12.021,1.473
						C331.456,139.167,331.119,138.333,330.978,137.498z"/>
				</g>
				<path style="fill:#FFEC41;" d="M342.453,134.966l-11.548,1.725c-0.005-0.305,0.012-0.606,0.062-0.902l10.581-1.762
					C341.881,134.322,342.184,134.636,342.453,134.966z"/>
			</g>
			<g>
				<g>
					<g>
						<g>
							<g>
								<path style="fill:#FF981A;" d="M150.958,141.209c-4.724,2.894-10.418,2.196-12.717-1.558
									c-2.299-3.754-0.334-9.143,4.39-12.037c4.724-2.894,10.418-2.196,12.718,1.558
									C157.648,132.926,155.682,138.315,150.958,141.209z"/>
							</g>
							<g>
								<path style="fill:#FF981A;" d="M149.928,139.528c-3.556,2.178-7.841,1.653-9.572-1.173c-1.731-2.826-0.251-6.882,3.305-9.06
									c3.556-2.178,7.841-1.653,9.572,1.173C154.964,133.294,153.484,137.35,149.928,139.528z"/>
							</g>
							<g>
								<path style="fill:#FF981A;" d="M156.194,133.969l-17.686-2.167c-0.658,1.155-1.057,2.377-1.179,3.584l17.44,2.136
									C155.501,136.391,155.989,135.179,156.194,133.969z"/>
							</g>
							<g>
								<path style="fill:#FF981A;" d="M149.928,139.528c-3.556,2.178-7.841,1.653-9.572-1.173c-1.731-2.826-0.251-6.882,3.305-9.06
									c3.556-2.178,7.841-1.653,9.572,1.173C154.964,133.294,153.484,137.35,149.928,139.528z"/>
							</g>
						</g>
						<g>
							<g>
								<path style="fill:#FFC21A;" d="M148.754,137.611c-3.556,2.178-7.841,1.653-9.572-1.173c-1.731-2.826-0.251-6.882,3.305-9.06
									c3.556-2.178,7.842-1.653,9.572,1.173C153.79,131.377,152.31,135.433,148.754,137.611z"/>
								<path style="fill:#FF981A;" d="M138.543,136.83c-1.943-3.173-0.35-7.699,3.553-10.089c3.903-2.391,8.659-1.754,10.602,1.419
									c1.944,3.174,0.35,7.7-3.552,10.09C145.243,140.641,140.487,140.004,138.543,136.83z M151.852,128.678
									c-1.624-2.651-5.741-3.097-9.177-0.993c-3.436,2.104-4.909,5.975-3.285,8.626c1.625,2.653,5.742,3.099,9.178,0.994
									C152.003,135.201,153.476,131.331,151.852,128.678z"/>
							</g>
						</g>
					</g>
					<path style="fill:#FFEC41;" d="M142.195,134.638l1.758,8.305c1.282,0.121,2.648-0.012,4.011-0.41l-1.847-8.725L142.195,134.638
						z"/>
					<path style="fill:#FFC21A;" d="M149.481,141.975c0.499-0.221,0.993-0.47,1.476-0.766c0.221-0.135,0.43-0.281,0.639-0.427
						l-1.751-4.072l-1.975,0.701L149.481,141.975z"/>
					<g>
						<path style="fill:#FFC21A;" d="M149.784,139.292c-4.724,2.894-10.418,2.196-12.717-1.558
							c-2.299-3.754-0.334-9.143,4.391-12.037c4.724-2.894,10.418-2.196,12.717,1.558
							C156.474,131.01,154.508,136.399,149.784,139.292z"/>
					</g>
					<g>
						<path style="fill:#FFEC41;" d="M155.02,132.053l-17.686-2.167c-0.658,1.155-1.057,2.377-1.179,3.584l17.44,2.136
							C154.327,134.474,154.815,133.263,155.02,132.053z"/>
					</g>
					<path style="fill:#FFEC41;" d="M138.372,128.378l16.753,2.503c0.008-0.442-0.018-0.88-0.09-1.309l-15.35-2.557
						C139.202,127.444,138.763,127.9,138.372,128.378z"/>
				</g>
			</g>
			<text transform="matrix(1 0 0 1 200.3016 137.1315)" style="fill:#FFFFFF; font-family:'Asap-Bold'; font-size:18.8727px;">COME IN</text>
			<g>
				<g>
					<path style="fill:#D13B81;" d="M156.763,115.702c-1.356,6.449,2.955,13.866,10.641,17.526c8.709,4.147,18.441,1.9,21.736-5.021
						c2.125-4.463,1.041-9.772-2.322-14.097h-24.243C160.452,114.109,158.47,114.696,156.763,115.702z"/>
				</g>
				<g>
					<g>
						<g>
							<path style="fill:#FF981A;" d="M173.029,130.498c-8.709-4.147-13.097-13.12-9.801-20.04
								c3.296-6.921,13.027-9.168,21.736-5.021c8.709,4.147,13.097,13.12,9.802,20.04
								C191.469,132.397,181.738,134.645,173.029,130.498z"/>
						</g>
						<g>
							<path style="fill:#FF981A;" d="M174.505,127.399c-6.555-3.122-9.858-9.875-7.378-15.084
								c2.481-5.209,9.806-6.901,16.361-3.779c6.555,3.122,9.858,9.875,7.378,15.084C188.385,128.828,181.06,130.52,174.505,127.399
								z"/>
						</g>
						<g>
							<path style="fill:#FF981A;" d="M188.567,131.266l-13.631-27.87c-2.31,0.136-4.473,0.715-6.351,1.683l13.442,27.482
								C184.374,132.553,186.606,132.116,188.567,131.266z"/>
						</g>
						<g>
							<path style="fill:#FF981A;" d="M174.505,127.399c-6.555-3.122-9.858-9.875-7.378-15.084
								c2.481-5.209,9.806-6.901,16.361-3.779c6.555,3.122,9.858,9.875,7.378,15.084C188.385,128.828,181.06,130.52,174.505,127.399
								z"/>
						</g>
					</g>
					<g>
						<g>
							<path style="fill:#FFC21A;" d="M176.187,123.866c-6.555-3.121-9.858-9.875-7.378-15.084
								c2.481-5.209,9.805-6.901,16.361-3.779c6.555,3.122,9.858,9.875,7.378,15.084
								C190.067,125.295,182.742,126.987,176.187,123.866z"/>
							<path style="fill:#FF981A;" d="M167.631,108.221c2.785-5.849,10.904-7.821,18.099-4.395
								c7.195,3.426,10.781,10.972,7.995,16.821c-2.787,5.851-10.905,7.823-18.1,4.397
								C168.431,121.618,164.845,114.072,167.631,108.221z M192.165,119.904c2.328-4.888-0.931-11.32-7.264-14.336
								c-6.334-3.016-13.381-1.492-15.709,3.396c-2.329,4.89,0.93,11.323,7.263,14.339
								C182.788,126.318,189.836,124.794,192.165,119.904z"/>
						</g>
					</g>
				</g>
				<path style="fill:#FFEC41;" d="M174.298,111.469l-10.451,10.451c1.041,1.987,2.532,3.854,4.407,5.465l10.98-10.98
					L174.298,111.469z"/>
				<path style="fill:#FFC21A;" d="M170.509,129.07c0.797,0.518,1.629,1.003,2.52,1.427c0.408,0.194,0.819,0.36,1.231,0.527
					l4.281-6.422l-2.899-2.217L170.509,129.07z"/>
				<g>
					<path style="fill:#FFC21A;" d="M174.711,126.965c-8.709-4.147-13.097-13.119-9.802-20.04c3.296-6.92,13.027-9.168,21.736-5.021
						c8.709,4.147,13.098,13.119,9.802,20.04C193.152,128.864,183.42,131.112,174.711,126.965z"/>
				</g>
				<g>
					<path style="fill:#FFEC41;" d="M190.249,127.733l-13.632-27.87c-2.31,0.136-4.473,0.715-6.35,1.683l13.442,27.482
						C186.057,129.02,188.289,128.583,190.249,127.733z"/>
				</g>
				<path style="fill:#FFEC41;" d="M179.804,99.947l12.255,26.827c0.652-0.409,1.267-0.861,1.824-1.375l-10.844-24.831
					C181.956,100.271,180.874,100.063,179.804,99.947z"/>
			</g>
		</g>
	</g>
</g>
</svg>
